<svg xmlns="http://www.w3.org/2000/svg" viewBox="0 0 256 256" role="img" aria-label="Cactus met groeigrafiek voor optimalisatie"><rect width="256" height="256" rx="48" fill="#d8fddf"/><path d="M84 205V91c0-22 17-40 39-40s39 18 39 40v114" fill="#2ea44f" stroke="#073b1a" stroke-width="8"/><path d="M84 130H60c-14 0-25-11-25-25V88" fill="none" stroke="#073b1a" stroke-width="10" stroke-linecap="round"/><path d="M162 122h25c13 0 24-11 24-24V81" fill="none" stroke="#073b1a" stroke-width="10" stroke-linecap="round"/><path d="M62 177h128" stroke="#073b1a" stroke-width="8" stroke-linecap="round"/><path d="M71 164l34-33 30 18 51-65" fill="none" stroke="#f5c542" stroke-width="12" stroke-linecap="round" stroke-linejoin="round"/><path d="M166 84h23v23" fill="none" stroke="#f5c542" stroke-width="12" stroke-linecap="round" stroke-linejoin="round"/><circle cx="105" cy="131" r="8" fill="#ffffff" stroke="#073b1a" stroke-width="5"/><circle cx="135" cy="149" r="8" fill="#ffffff" stroke="#073b1a" stroke-width="5"/><path d="M98 86v81M132 76v95" stroke="#073b1a" stroke-width="5" stroke-linecap="round" opacity=".45"/><path d="M54 219h145" stroke="#073b1a" stroke-width="10" stroke-linecap="round"/></svg>